<svg xmlns="http://www.w3.org/2000/svg" viewBox="0 0 69 97"><title>u</title><path d="M20.87,51.1A30.69,30.69,0,0,1,11,44.53q-6.42-6.42-6.42-17A24.39,24.39,0,0,1,7,16.94a28.68,28.68,0,0,1,6.55-8.87,32.4,32.4,0,0,1,9.86-6.15A32,32,0,0,1,35.57-.4,37.42,37.42,0,0,1,49.13,1.79a29.77,29.77,0,0,1,9.4,5.62A27.35,27.35,0,0,1,64.42,15a31.8,31.8,0,0,1,2.91,7.94L55.68,27A20.12,20.12,0,0,0,54,21.64a18.36,18.36,0,0,0-3.7-5.23,18.57,18.57,0,0,0-6-3.9A21.43,21.43,0,0,0,35.83,11a21.46,21.46,0,0,0-7.28,1.19,18.19,18.19,0,0,0-5.75,3.31,14.87,14.87,0,0,0-3.78,5A14.47,14.47,0,0,0,17.7,26.6a13.09,13.09,0,0,0,3,8.67m30.91,10.5a29.11,29.11,0,0,1,10.18,7,24,24,0,0,1,6.29,16.81,25.29,25.29,0,0,1-2.25,10.45,26.44,26.44,0,0,1-6.48,8.87A32.54,32.54,0,0,1,49.2,95.08,37.1,37.1,0,0,1,35.7,97.4a39.53,39.53,0,0,1-14.76-2.52A33.77,33.77,0,0,1,10.36,88.4a29.6,29.6,0,0,1-6.69-8.93,33.17,33.17,0,0,1-3-10l12.44-4A26,26,0,0,0,15,73.11a19.13,19.13,0,0,0,4.37,6.42A21.09,21.09,0,0,0,26.24,84a24.51,24.51,0,0,0,9.33,1.65q9.66,0,14.49-4.37A13.86,13.86,0,0,0,51.45,61.6"/><circle cx="35.96" cy="48.19" r="7.5"/></svg>