<svg xmlns="http://www.w3.org/2000/svg" viewBox="0 0 47.3 98.16"><title>u</title><path d="M14.57,12.86A46.52,46.52,0,0,0,4.06,28.14,51.56,51.56,0,0,0,.09,49,52.78,52.78,0,0,0,4,69.87,46.43,46.43,0,0,0,14.31,85.21a43.56,43.56,0,0,0,14.81,9.46,48.28,48.28,0,0,0,17.53,3.24V86a34.25,34.25,0,0,1-12.37-2.31,30.47,30.47,0,0,1-10.71-7A34.11,34.11,0,0,1,16.1,65,42.91,42.91,0,0,1,13.32,49,42.91,42.91,0,0,1,16.1,32.9a33.41,33.41,0,0,1,7.47-11.57,31,31,0,0,1,10.71-6.95,34.25,34.25,0,0,1,12.37-2.31V.17A47.24,47.24,0,0,0,29.52,3.41,45.17,45.17,0,0,0,14.57,12.86Z"/></svg>